<?xml version="1.0" encoding="UTF-8" standalone="no"?>
<!DOCTYPE svg PUBLIC "-//W3C//DTD SVG 1.1//EN"
 "http://www.w3.org/Graphics/SVG/1.1/DTD/svg11.dtd">
<!-- Generated by graphviz version 2.43.0 (0)
 -->
<!-- Title: Distances Pages: 1 -->
<svg width="1441pt" height="479pt"
 viewBox="0.00 0.00 1441.29 479.00" xmlns="http://www.w3.org/2000/svg" xmlns:xlink="http://www.w3.org/1999/xlink">
<g id="graph0" class="graph" transform="scale(1 1) rotate(0) translate(4 475)">
<title>Distances</title>
<polygon fill="white" stroke="transparent" points="-4,4 -4,-475 1437.29,-475 1437.29,4 -4,4"/>
<!-- Joukko&#45;oppi ja graafiteoria -->
<g id="node1" class="node">
<title>Joukko&#45;oppi ja graafiteoria</title>
<ellipse fill="none" stroke="black" cx="397" cy="-453" rx="132.68" ry="18"/>
<text text-anchor="middle" x="397" y="-449.3" font-family="Times,serif" font-size="14.00">Joukko&#45;oppi ja graafiteoria</text>
</g>
<!-- Joukko&#45;oppi ja graafiteoria&#45;&gt;Joukko&#45;oppi ja graafiteoria -->
<g id="edge1" class="edge">
<title>Joukko&#45;oppi ja graafiteoria&#45;&gt;Joukko&#45;oppi ja graafiteoria</title>
<path fill="none" stroke="green" stroke-width="2" stroke-dasharray="5,2" d="M519.01,-460.05C536.13,-458.9 547.59,-456.55 547.59,-453 547.59,-450.2 540.45,-448.15 529.03,-446.84"/>
<polygon fill="green" stroke="green" stroke-width="2" points="529.28,-443.35 519.01,-445.95 528.66,-450.32 529.28,-443.35"/>
<text text-anchor="middle" x="552.59" y="-449.3" font-family="Times,serif" font-size="14.00">0</text>
</g>
<!-- Funktio&#45;ohjelmointi -->
<g id="node2" class="node">
<title>Funktio&#45;ohjelmointi</title>
<ellipse fill="none" stroke="black" cx="496" cy="-279" rx="101.28" ry="18"/>
<text text-anchor="middle" x="496" y="-275.3" font-family="Times,serif" font-size="14.00">Funktio&#45;ohjelmointi</text>
</g>
<!-- Joukko&#45;oppi ja graafiteoria&#45;&gt;Funktio&#45;ohjelmointi -->
<g id="edge2" class="edge">
<title>Joukko&#45;oppi ja graafiteoria&#45;&gt;Funktio&#45;ohjelmointi</title>
<path fill="none" stroke="green" stroke-width="2" stroke-dasharray="5,2" d="M459.47,-437.11C487.35,-427.02 517.56,-410.52 534,-384 549.38,-359.19 533.15,-327.23 517.39,-305.32"/>
<polygon fill="green" stroke="green" stroke-width="2" points="520.04,-303.03 511.22,-297.17 514.46,-307.25 520.04,-303.03"/>
<text text-anchor="middle" x="551.5" y="-362.3" font-family="Times,serif" font-size="14.00">5/2</text>
</g>
<!-- Tietoverkot -->
<g id="node3" class="node">
<title>Tietoverkot</title>
<ellipse fill="none" stroke="black" cx="253" cy="-366" rx="63.89" ry="18"/>
<text text-anchor="middle" x="253" y="-362.3" font-family="Times,serif" font-size="14.00">Tietoverkot</text>
</g>
<!-- Joukko&#45;oppi ja graafiteoria&#45;&gt;Tietoverkot -->
<g id="edge3" class="edge">
<title>Joukko&#45;oppi ja graafiteoria&#45;&gt;Tietoverkot</title>
<path fill="none" stroke="brown" stroke-width="2" stroke-dasharray="5,2" d="M368.55,-435.21C345.48,-421.59 312.86,-402.33 288.16,-387.75"/>
<polygon fill="brown" stroke="brown" stroke-width="2" points="289.84,-384.68 279.45,-382.61 286.28,-390.71 289.84,-384.68"/>
<text text-anchor="middle" x="345.5" y="-405.8" font-family="Times,serif" font-size="14.00">9/2</text>
</g>
<!-- Algoritmit 1 -->
<g id="node4" class="node">
<title>Algoritmit 1</title>
<ellipse fill="none" stroke="black" cx="430" cy="-366" rx="66.89" ry="18"/>
<text text-anchor="middle" x="430" y="-362.3" font-family="Times,serif" font-size="14.00">Algoritmit 1</text>
</g>
<!-- Joukko&#45;oppi ja graafiteoria&#45;&gt;Algoritmit 1 -->
<g id="edge4" class="edge">
<title>Joukko&#45;oppi ja graafiteoria&#45;&gt;Algoritmit 1</title>
<path fill="none" stroke="brown" stroke-width="2" stroke-dasharray="5,2" d="M403.68,-434.8C408.24,-423.05 414.38,-407.24 419.58,-393.84"/>
<polygon fill="brown" stroke="brown" stroke-width="2" points="422.98,-394.76 423.33,-384.18 416.45,-392.23 422.98,-394.76"/>
<text text-anchor="middle" x="427.5" y="-405.8" font-family="Times,serif" font-size="14.00">9/2</text>
</g>
<!-- Funktio&#45;ohjelmointi&#45;&gt;Funktio&#45;ohjelmointi -->
<g id="edge5" class="edge">
<title>Funktio&#45;ohjelmointi&#45;&gt;Funktio&#45;ohjelmointi</title>
<path fill="none" stroke="green" stroke-width="2" stroke-dasharray="5,2" d="M588.61,-286.35C604.43,-285.35 615.39,-282.9 615.39,-279 615.39,-276.02 608.97,-273.88 598.85,-272.59"/>
<polygon fill="green" stroke="green" stroke-width="2" points="598.89,-269.08 588.61,-271.65 598.25,-276.05 598.89,-269.08"/>
<text text-anchor="middle" x="620.39" y="-275.3" font-family="Times,serif" font-size="14.00">0</text>
</g>
<!-- Oliosuuntautunut suunnittelu ja ohjelmointi -->
<g id="node5" class="node">
<title>Oliosuuntautunut suunnittelu ja ohjelmointi</title>
<ellipse fill="none" stroke="black" cx="819" cy="-192" rx="214.46" ry="18"/>
<text text-anchor="middle" x="819" y="-188.3" font-family="Times,serif" font-size="14.00">Oliosuuntautunut suunnittelu ja ohjelmointi</text>
</g>
<!-- Funktio&#45;ohjelmointi&#45;&gt;Oliosuuntautunut suunnittelu ja ohjelmointi -->
<g id="edge6" class="edge">
<title>Funktio&#45;ohjelmointi&#45;&gt;Oliosuuntautunut suunnittelu ja ohjelmointi</title>
<path fill="none" stroke="brown" stroke-width="2" stroke-dasharray="5,2" d="M550.43,-263.68C604.59,-249.42 687.98,-227.48 747.47,-211.82"/>
<polygon fill="brown" stroke="brown" stroke-width="2" points="748.39,-215.2 757.17,-209.27 746.61,-208.43 748.39,-215.2"/>
<text text-anchor="middle" x="681" y="-231.8" font-family="Times,serif" font-size="14.00">4</text>
</g>
<!-- Ohjelmointi 1 -->
<g id="node6" class="node">
<title>Ohjelmointi 1</title>
<ellipse fill="none" stroke="black" cx="555" cy="-105" rx="73.39" ry="18"/>
<text text-anchor="middle" x="555" y="-101.3" font-family="Times,serif" font-size="14.00">Ohjelmointi 1</text>
</g>
<!-- Funktio&#45;ohjelmointi&#45;&gt;Ohjelmointi 1 -->
<g id="edge7" class="edge">
<title>Funktio&#45;ohjelmointi&#45;&gt;Ohjelmointi 1</title>
<path fill="none" stroke="green" stroke-width="2" stroke-dasharray="5,2" d="M495.98,-260.86C496.48,-239.77 499.05,-203.17 510,-174 515.77,-158.64 525.53,-143.26 534.5,-131.01"/>
<polygon fill="green" stroke="green" stroke-width="2" points="537.55,-132.78 540.81,-122.7 531.98,-128.55 537.55,-132.78"/>
<text text-anchor="middle" x="521.5" y="-188.3" font-family="Times,serif" font-size="14.00">5/2</text>
</g>
<!-- Käyttöjärjestelmien ja pilvipalveluiden perusteet -->
<g id="node7" class="node">
<title>Käyttöjärjestelmien ja pilvipalveluiden perusteet</title>
<ellipse fill="none" stroke="black" cx="249" cy="-18" rx="237.76" ry="18"/>
<text text-anchor="middle" x="249" y="-14.3" font-family="Times,serif" font-size="14.00">Käyttöjärjestelmien ja pilvipalveluiden perusteet</text>
</g>
<!-- Funktio&#45;ohjelmointi&#45;&gt;Käyttöjärjestelmien ja pilvipalveluiden perusteet -->
<g id="edge8" class="edge">
<title>Funktio&#45;ohjelmointi&#45;&gt;Käyttöjärjestelmien ja pilvipalveluiden perusteet</title>
<path fill="none" stroke="brown" stroke-width="2" stroke-dasharray="5,2" d="M395.1,-276.99C279.25,-273.43 99.66,-259.78 57,-210 0.52,-144.1 125.34,-73.92 199.35,-39.9"/>
<polygon fill="brown" stroke="brown" stroke-width="2" points="200.88,-43.05 208.55,-35.74 198,-36.67 200.88,-43.05"/>
<text text-anchor="middle" x="70" y="-144.8" font-family="Times,serif" font-size="14.00">23/6</text>
</g>
<!-- Ohjelmointi 2 -->
<g id="node8" class="node">
<title>Ohjelmointi 2</title>
<ellipse fill="none" stroke="black" cx="878" cy="-18" rx="73.39" ry="18"/>
<text text-anchor="middle" x="878" y="-14.3" font-family="Times,serif" font-size="14.00">Ohjelmointi 2</text>
</g>
<!-- Funktio&#45;ohjelmointi&#45;&gt;Ohjelmointi 2 -->
<g id="edge9" class="edge">
<title>Funktio&#45;ohjelmointi&#45;&gt;Ohjelmointi 2</title>
<path fill="none" stroke="green" stroke-width="2" stroke-dasharray="5,2" d="M592.76,-273.44C748.09,-265.11 1038.9,-245 1070,-210 1128.8,-143.82 997.23,-71.66 923.52,-38.12"/>
<polygon fill="green" stroke="green" stroke-width="2" points="924.53,-34.74 913.97,-33.84 921.66,-41.13 924.53,-34.74"/>
<text text-anchor="middle" x="1096" y="-144.8" font-family="Times,serif" font-size="14.00">13/6</text>
</g>
<!-- Tietokoneen rakenne ja arkkitehtuuri -->
<g id="node9" class="node">
<title>Tietokoneen rakenne ja arkkitehtuuri</title>
<ellipse fill="none" stroke="black" cx="249" cy="-192" rx="183.07" ry="18"/>
<text text-anchor="middle" x="249" y="-188.3" font-family="Times,serif" font-size="14.00">Tietokoneen rakenne ja arkkitehtuuri</text>
</g>
<!-- Funktio&#45;ohjelmointi&#45;&gt;Tietokoneen rakenne ja arkkitehtuuri -->
<g id="edge10" class="edge">
<title>Funktio&#45;ohjelmointi&#45;&gt;Tietokoneen rakenne ja arkkitehtuuri</title>
<path fill="none" stroke="brown" stroke-width="2" stroke-dasharray="5,2" d="M451.56,-262.71C410.93,-248.72 350.6,-227.96 306.35,-212.74"/>
<polygon fill="brown" stroke="brown" stroke-width="2" points="307.48,-209.42 296.88,-209.48 305.2,-216.04 307.48,-209.42"/>
<text text-anchor="middle" x="393" y="-231.8" font-family="Times,serif" font-size="14.00">4</text>
</g>
<!-- Tietoverkot&#45;&gt;Joukko&#45;oppi ja graafiteoria -->
<g id="edge21" class="edge">
<title>Tietoverkot&#45;&gt;Joukko&#45;oppi ja graafiteoria</title>
<path fill="none" stroke="brown" stroke-width="2" stroke-dasharray="5,2" d="M266.4,-383.71C275.72,-394.43 288.95,-407.98 303,-417 312.31,-422.98 322.79,-428.15 333.29,-432.54"/>
<polygon fill="brown" stroke="brown" stroke-width="2" points="332.31,-435.92 342.9,-436.35 334.89,-429.41 332.31,-435.92"/>
<text text-anchor="middle" x="308" y="-405.8" font-family="Times,serif" font-size="14.00">4</text>
</g>
<!-- Tietoverkot&#45;&gt;Funktio&#45;ohjelmointi -->
<g id="edge22" class="edge">
<title>Tietoverkot&#45;&gt;Funktio&#45;ohjelmointi</title>
<path fill="none" stroke="brown" stroke-width="2" stroke-dasharray="5,2" d="M291.5,-351.53C332.36,-337.24 397.2,-314.56 442.89,-298.58"/>
<polygon fill="brown" stroke="brown" stroke-width="2" points="444.05,-301.88 452.34,-295.27 441.74,-295.27 444.05,-301.88"/>
<text text-anchor="middle" x="395" y="-318.8" font-family="Times,serif" font-size="14.00">4</text>
</g>
<!-- Tietoverkot&#45;&gt;Tietoverkot -->
<g id="edge23" class="edge">
<title>Tietoverkot&#45;&gt;Tietoverkot</title>
<path fill="none" stroke="green" stroke-width="2" stroke-dasharray="5,2" d="M310.64,-373.74C324.46,-373.13 334.69,-370.55 334.69,-366 334.69,-362.66 329.17,-360.38 320.77,-359.16"/>
<polygon fill="green" stroke="green" stroke-width="2" points="320.91,-355.66 310.64,-358.26 320.29,-362.63 320.91,-355.66"/>
<text text-anchor="middle" x="339.69" y="-362.3" font-family="Times,serif" font-size="14.00">0</text>
</g>
<!-- Tietoverkot&#45;&gt;Käyttöjärjestelmien ja pilvipalveluiden perusteet -->
<g id="edge24" class="edge">
<title>Tietoverkot&#45;&gt;Käyttöjärjestelmien ja pilvipalveluiden perusteet</title>
<path fill="none" stroke="yellow" stroke-width="2" stroke-dasharray="5,2" d="M196.54,-357.57C121.97,-346.15 0,-321.18 0,-280 0,-280 0,-280 0,-104 0,-72.5 72.27,-50.27 138.94,-36.46"/>
<polygon fill="yellow" stroke="yellow" stroke-width="2" points="140.05,-39.81 149.16,-34.4 138.66,-32.95 140.05,-39.81"/>
<text text-anchor="middle" x="5" y="-188.3" font-family="Times,serif" font-size="14.00">3</text>
</g>
<!-- Algoritmit 1&#45;&gt;Joukko&#45;oppi ja graafiteoria -->
<g id="edge27" class="edge">
<title>Algoritmit 1&#45;&gt;Joukko&#45;oppi ja graafiteoria</title>
<path fill="none" stroke="yellow" stroke-width="2" stroke-dasharray="5,2" d="M410.55,-383.38C405.52,-388.75 400.75,-395.12 398,-402 395.2,-409.01 394.18,-417.04 394.07,-424.57"/>
<polygon fill="yellow" stroke="yellow" stroke-width="2" points="390.57,-424.86 394.41,-434.74 397.57,-424.63 390.57,-424.86"/>
<text text-anchor="middle" x="403" y="-405.8" font-family="Times,serif" font-size="14.00">3</text>
</g>
<!-- Algoritmit 1&#45;&gt;Funktio&#45;ohjelmointi -->
<g id="edge28" class="edge">
<title>Algoritmit 1&#45;&gt;Funktio&#45;ohjelmointi</title>
<path fill="none" stroke="yellow" stroke-width="2" stroke-dasharray="5,2" d="M443.04,-348.21C452.56,-335.95 465.63,-319.11 476.4,-305.24"/>
<polygon fill="yellow" stroke="yellow" stroke-width="2" points="479.39,-307.09 482.76,-297.05 473.86,-302.8 479.39,-307.09"/>
<text text-anchor="middle" x="471" y="-318.8" font-family="Times,serif" font-size="14.00">3</text>
</g>
<!-- Algoritmit 1&#45;&gt;Algoritmit 1 -->
<g id="edge29" class="edge">
<title>Algoritmit 1&#45;&gt;Algoritmit 1</title>
<path fill="none" stroke="green" stroke-width="2" stroke-dasharray="5,2" d="M490.7,-373.7C504.68,-373.04 514.94,-370.47 514.94,-366 514.94,-362.72 509.41,-360.46 500.93,-359.23"/>
<polygon fill="green" stroke="green" stroke-width="2" points="500.98,-355.72 490.7,-358.3 500.34,-362.69 500.98,-355.72"/>
<text text-anchor="middle" x="519.94" y="-362.3" font-family="Times,serif" font-size="14.00">0</text>
</g>
<!-- Oliosuuntautunut suunnittelu ja ohjelmointi&#45;&gt;Funktio&#45;ohjelmointi -->
<g id="edge11" class="edge">
<title>Oliosuuntautunut suunnittelu ja ohjelmointi&#45;&gt;Funktio&#45;ohjelmointi</title>
<path fill="none" stroke="brown" stroke-width="2" stroke-dasharray="5,2" d="M781.27,-209.83C755.89,-220.6 721.45,-234.16 690,-243 655.96,-252.57 617.8,-260.12 584.39,-265.71"/>
<polygon fill="brown" stroke="brown" stroke-width="2" points="583.48,-262.32 574.18,-267.39 584.62,-269.22 583.48,-262.32"/>
<text text-anchor="middle" x="749" y="-231.8" font-family="Times,serif" font-size="14.00">14/3</text>
</g>
<!-- Oliosuuntautunut suunnittelu ja ohjelmointi&#45;&gt;Oliosuuntautunut suunnittelu ja ohjelmointi -->
<g id="edge12" class="edge">
<title>Oliosuuntautunut suunnittelu ja ohjelmointi&#45;&gt;Oliosuuntautunut suunnittelu ja ohjelmointi</title>
<path fill="none" stroke="green" stroke-width="2" stroke-dasharray="5,2" d="M1019.87,-198.37C1039.22,-197.08 1051.48,-194.95 1051.48,-192 1051.48,-189.6 1043.39,-187.75 1029.98,-186.45"/>
<polygon fill="green" stroke="green" stroke-width="2" points="1030.12,-182.95 1019.87,-185.63 1029.56,-189.92 1030.12,-182.95"/>
<text text-anchor="middle" x="1056.48" y="-188.3" font-family="Times,serif" font-size="14.00">0</text>
</g>
<!-- Oliosuuntautunut suunnittelu ja ohjelmointi&#45;&gt;Ohjelmointi 1 -->
<g id="edge13" class="edge">
<title>Oliosuuntautunut suunnittelu ja ohjelmointi&#45;&gt;Ohjelmointi 1</title>
<path fill="none" stroke="yellow" stroke-width="2" stroke-dasharray="5,2" d="M706.05,-176.64C681.79,-171.63 656.65,-164.93 634,-156 616.49,-149.1 598.64,-138.19 584.35,-128.32"/>
<polygon fill="yellow" stroke="yellow" stroke-width="2" points="586.12,-125.29 575.94,-122.36 582.07,-131 586.12,-125.29"/>
<text text-anchor="middle" x="639" y="-144.8" font-family="Times,serif" font-size="14.00">3</text>
</g>
<!-- Oliosuuntautunut suunnittelu ja ohjelmointi&#45;&gt;Käyttöjärjestelmien ja pilvipalveluiden perusteet -->
<g id="edge14" class="edge">
<title>Oliosuuntautunut suunnittelu ja ohjelmointi&#45;&gt;Käyttöjärjestelmien ja pilvipalveluiden perusteet</title>
<path fill="none" stroke="brown" stroke-width="2" stroke-dasharray="5,2" d="M799.68,-173.84C771.96,-150.23 718.35,-108.26 665,-87 591.64,-57.77 506.22,-41.1 431.93,-31.6"/>
<polygon fill="brown" stroke="brown" stroke-width="2" points="432.35,-28.12 421.99,-30.36 431.48,-35.07 432.35,-28.12"/>
<text text-anchor="middle" x="737" y="-101.3" font-family="Times,serif" font-size="14.00">4</text>
</g>
<!-- Oliosuuntautunut suunnittelu ja ohjelmointi&#45;&gt;Ohjelmointi 2 -->
<g id="edge15" class="edge">
<title>Oliosuuntautunut suunnittelu ja ohjelmointi&#45;&gt;Ohjelmointi 2</title>
<path fill="none" stroke="green" stroke-width="2" stroke-dasharray="5,2" d="M818.98,-173.86C819.48,-152.77 822.05,-116.17 833,-87 838.77,-71.64 848.53,-56.26 857.5,-44.01"/>
<polygon fill="green" stroke="green" stroke-width="2" points="860.55,-45.78 863.81,-35.7 854.98,-41.55 860.55,-45.78"/>
<text text-anchor="middle" x="844.5" y="-101.3" font-family="Times,serif" font-size="14.00">7/3</text>
</g>
<!-- Ohjelmointi 1&#45;&gt;Funktio&#45;ohjelmointi -->
<g id="edge16" class="edge">
<title>Ohjelmointi 1&#45;&gt;Funktio&#45;ohjelmointi</title>
<path fill="none" stroke="brown" stroke-width="2" stroke-dasharray="5,2" d="M552.9,-123.36C550,-144.36 543.86,-180.57 533,-210 527.63,-224.57 519.56,-239.84 512.34,-252.21"/>
<polygon fill="brown" stroke="brown" stroke-width="2" points="509.18,-250.67 507.03,-261.05 515.18,-254.27 509.18,-250.67"/>
<text text-anchor="middle" x="559" y="-188.3" font-family="Times,serif" font-size="14.00">19/5</text>
</g>
<!-- Ohjelmointi 1&#45;&gt;Oliosuuntautunut suunnittelu ja ohjelmointi -->
<g id="edge17" class="edge">
<title>Ohjelmointi 1&#45;&gt;Oliosuuntautunut suunnittelu ja ohjelmointi</title>
<path fill="none" stroke="brown" stroke-width="2" stroke-dasharray="5,2" d="M592.3,-120.62C624.63,-133.2 668.98,-150.21 687,-156 704.99,-161.77 724.56,-167.34 743,-172.28"/>
<polygon fill="brown" stroke="brown" stroke-width="2" points="742.25,-175.7 752.81,-174.88 744.04,-168.93 742.25,-175.7"/>
<text text-anchor="middle" x="698.5" y="-144.8" font-family="Times,serif" font-size="14.00">9/2</text>
</g>
<!-- Ohjelmointi 1&#45;&gt;Ohjelmointi 1 -->
<g id="edge18" class="edge">
<title>Ohjelmointi 1&#45;&gt;Ohjelmointi 1</title>
<path fill="none" stroke="green" stroke-width="2" stroke-dasharray="5,2" d="M621.58,-112.64C635.99,-111.9 646.44,-109.35 646.44,-105 646.44,-101.74 640.56,-99.49 631.54,-98.26"/>
<polygon fill="green" stroke="green" stroke-width="2" points="631.85,-94.77 621.58,-97.36 631.22,-101.74 631.85,-94.77"/>
<text text-anchor="middle" x="651.44" y="-101.3" font-family="Times,serif" font-size="14.00">0</text>
</g>
<!-- Ohjelmointi 1&#45;&gt;Käyttöjärjestelmien ja pilvipalveluiden perusteet -->
<g id="edge19" class="edge">
<title>Ohjelmointi 1&#45;&gt;Käyttöjärjestelmien ja pilvipalveluiden perusteet</title>
<path fill="none" stroke="brown" stroke-width="2" stroke-dasharray="5,2" d="M508.19,-91C457.55,-76.93 376.27,-54.35 318.24,-38.23"/>
<polygon fill="brown" stroke="brown" stroke-width="2" points="318.98,-34.81 308.41,-35.5 317.11,-41.55 318.98,-34.81"/>
<text text-anchor="middle" x="441.5" y="-57.8" font-family="Times,serif" font-size="14.00">47/10</text>
</g>
<!-- Ohjelmointi 1&#45;&gt;Ohjelmointi 2 -->
<g id="edge20" class="edge">
<title>Ohjelmointi 1&#45;&gt;Ohjelmointi 2</title>
<path fill="none" stroke="brown" stroke-width="2" stroke-dasharray="5,2" d="M603.01,-91.37C660.86,-76.14 757.99,-50.58 819.98,-34.27"/>
<polygon fill="brown" stroke="brown" stroke-width="2" points="821.21,-37.56 829.99,-31.63 819.43,-30.79 821.21,-37.56"/>
<text text-anchor="middle" x="751" y="-57.8" font-family="Times,serif" font-size="14.00">18/5</text>
</g>
<!-- Käyttöjärjestelmien ja pilvipalveluiden perusteet&#45;&gt;Käyttöjärjestelmien ja pilvipalveluiden perusteet -->
<g id="edge30" class="edge">
<title>Käyttöjärjestelmien ja pilvipalveluiden perusteet&#45;&gt;Käyttöjärjestelmien ja pilvipalveluiden perusteet</title>
<path fill="none" stroke="green" stroke-width="2" stroke-dasharray="5,2" d="M472.28,-24.23C492.31,-22.93 504.88,-20.85 504.88,-18 504.88,-15.66 496.42,-13.84 482.32,-12.55"/>
<polygon fill="green" stroke="green" stroke-width="2" points="482.52,-9.05 472.28,-11.77 481.98,-16.03 482.52,-9.05"/>
<text text-anchor="middle" x="509.88" y="-14.3" font-family="Times,serif" font-size="14.00">0</text>
</g>
<!-- Ohjelmointi 2&#45;&gt;Oliosuuntautunut suunnittelu ja ohjelmointi -->
<g id="edge31" class="edge">
<title>Ohjelmointi 2&#45;&gt;Oliosuuntautunut suunnittelu ja ohjelmointi</title>
<path fill="none" stroke="brown" stroke-width="2" stroke-dasharray="5,2" d="M875.9,-36.36C873,-57.36 866.86,-93.57 856,-123 850.66,-137.47 842.68,-152.63 835.49,-164.95"/>
<polygon fill="brown" stroke="brown" stroke-width="2" points="832.34,-163.39 830.2,-173.77 838.35,-166.99 832.34,-163.39"/>
<text text-anchor="middle" x="882" y="-101.3" font-family="Times,serif" font-size="14.00">19/4</text>
</g>
<!-- Ohjelmointi 2&#45;&gt;Ohjelmointi 2 -->
<g id="edge32" class="edge">
<title>Ohjelmointi 2&#45;&gt;Ohjelmointi 2</title>
<path fill="none" stroke="green" stroke-width="2" stroke-dasharray="5,2" d="M944.58,-25.64C958.99,-24.9 969.44,-22.35 969.44,-18 969.44,-14.74 963.56,-12.49 954.54,-11.26"/>
<polygon fill="green" stroke="green" stroke-width="2" points="954.85,-7.77 944.58,-10.36 954.22,-14.74 954.85,-7.77"/>
<text text-anchor="middle" x="974.44" y="-14.3" font-family="Times,serif" font-size="14.00">0</text>
</g>
<!-- Tietokoneen rakenne ja arkkitehtuuri&#45;&gt;Funktio&#45;ohjelmointi -->
<g id="edge33" class="edge">
<title>Tietokoneen rakenne ja arkkitehtuuri&#45;&gt;Funktio&#45;ohjelmointi</title>
<path fill="none" stroke="brown" stroke-width="2" stroke-dasharray="5,2" d="M276.39,-209.85C294.91,-220.62 320.24,-234.18 344,-243 366.88,-251.49 392.49,-258.34 416.07,-263.66"/>
<polygon fill="brown" stroke="brown" stroke-width="2" points="415.52,-267.12 426.04,-265.84 417.02,-260.28 415.52,-267.12"/>
<text text-anchor="middle" x="349" y="-231.8" font-family="Times,serif" font-size="14.00">4</text>
</g>
<!-- Tietokoneen rakenne ja arkkitehtuuri&#45;&gt;Ohjelmointi 1 -->
<g id="edge34" class="edge">
<title>Tietokoneen rakenne ja arkkitehtuuri&#45;&gt;Ohjelmointi 1</title>
<path fill="none" stroke="brown" stroke-width="2" stroke-dasharray="5,2" d="M306.92,-174.91C361.89,-159.64 443.98,-136.84 498.49,-121.7"/>
<polygon fill="brown" stroke="brown" stroke-width="2" points="499.63,-125.01 508.33,-118.96 497.76,-118.27 499.63,-125.01"/>
<text text-anchor="middle" x="432.5" y="-144.8" font-family="Times,serif" font-size="14.00">9/2</text>
</g>
<!-- Tietokoneen rakenne ja arkkitehtuuri&#45;&gt;Käyttöjärjestelmien ja pilvipalveluiden perusteet -->
<g id="edge35" class="edge">
<title>Tietokoneen rakenne ja arkkitehtuuri&#45;&gt;Käyttöjärjestelmien ja pilvipalveluiden perusteet</title>
<path fill="none" stroke="brown" stroke-width="2" stroke-dasharray="5,2" d="M249,-173.88C249,-144 249,-82.11 249,-46.27"/>
<polygon fill="brown" stroke="brown" stroke-width="2" points="252.5,-46.05 249,-36.05 245.5,-46.05 252.5,-46.05"/>
<text text-anchor="middle" x="260.5" y="-101.3" font-family="Times,serif" font-size="14.00">7/2</text>
</g>
<!-- Tietokoneen rakenne ja arkkitehtuuri&#45;&gt;Tietokoneen rakenne ja arkkitehtuuri -->
<g id="edge36" class="edge">
<title>Tietokoneen rakenne ja arkkitehtuuri&#45;&gt;Tietokoneen rakenne ja arkkitehtuuri</title>
<path fill="none" stroke="green" stroke-width="2" stroke-dasharray="5,2" d="M419.71,-198.6C438.3,-197.34 450.28,-195.14 450.28,-192 450.28,-189.48 442.52,-187.56 429.8,-186.25"/>
<polygon fill="green" stroke="green" stroke-width="2" points="429.96,-182.75 419.71,-185.4 429.38,-189.72 429.96,-182.75"/>
<text text-anchor="middle" x="455.28" y="-188.3" font-family="Times,serif" font-size="14.00">0</text>
</g>
<!-- Tietokannat ja tiedonhallinta -->
<g id="node10" class="node">
<title>Tietokannat ja tiedonhallinta</title>
<ellipse fill="none" stroke="black" cx="1261" cy="-105" rx="144.07" ry="18"/>
<text text-anchor="middle" x="1261" y="-101.3" font-family="Times,serif" font-size="14.00">Tietokannat ja tiedonhallinta</text>
</g>
<!-- Tietokannat ja tiedonhallinta&#45;&gt;Ohjelmointi 2 -->
<g id="edge26" class="edge">
<title>Tietokannat ja tiedonhallinta&#45;&gt;Ohjelmointi 2</title>
<path fill="none" stroke="brown" stroke-width="2" stroke-dasharray="5,2" d="M1216.22,-87.82C1184.86,-76.99 1141.8,-63.1 1103,-54 1053.55,-42.4 997.05,-33.63 953.05,-27.77"/>
<polygon fill="brown" stroke="brown" stroke-width="2" points="953.37,-24.28 943,-26.45 952.46,-31.22 953.37,-24.28"/>
<text text-anchor="middle" x="1171" y="-57.8" font-family="Times,serif" font-size="14.00">10/3</text>
</g>
<!-- Tietokannat ja tiedonhallinta&#45;&gt;Tietokannat ja tiedonhallinta -->
<g id="edge25" class="edge">
<title>Tietokannat ja tiedonhallinta&#45;&gt;Tietokannat ja tiedonhallinta</title>
<path fill="none" stroke="green" stroke-width="2" stroke-dasharray="5,2" d="M1394.39,-111.92C1411.78,-110.73 1423.29,-108.42 1423.29,-105 1423.29,-102.3 1416.12,-100.29 1404.55,-98.98"/>
<polygon fill="green" stroke="green" stroke-width="2" points="1404.66,-95.47 1394.39,-98.08 1404.04,-102.45 1404.66,-95.47"/>
<text text-anchor="middle" x="1428.29" y="-101.3" font-family="Times,serif" font-size="14.00">0</text>
</g>
</g>
</svg>
