<?xml version="1.0" encoding="UTF-8" standalone="no"?>
<!DOCTYPE svg PUBLIC "-//W3C//DTD SVG 1.1//EN"
 "http://www.w3.org/Graphics/SVG/1.1/DTD/svg11.dtd">
<!-- Generated by graphviz version 2.43.0 (0)
 -->
<!-- Title: Distances Pages: 1 -->
<svg width="1301pt" height="479pt"
 viewBox="0.00 0.00 1301.00 479.00" xmlns="http://www.w3.org/2000/svg" xmlns:xlink="http://www.w3.org/1999/xlink">
<g id="graph0" class="graph" transform="scale(1 1) rotate(0) translate(4 475)">
<title>Distances</title>
<polygon fill="white" stroke="transparent" points="-4,4 -4,-475 1297,-475 1297,4 -4,4"/>
<!-- Joukko&#45;oppi ja graafiteoria -->
<g id="node1" class="node">
<title>Joukko&#45;oppi ja graafiteoria</title>
<ellipse fill="none" stroke="black" cx="161" cy="-366" rx="132.68" ry="18"/>
<text text-anchor="middle" x="161" y="-362.3" font-family="Times,serif" font-size="14.00">Joukko&#45;oppi ja graafiteoria</text>
</g>
<!-- Joukko&#45;oppi ja graafiteoria&#45;&gt;Joukko&#45;oppi ja graafiteoria -->
<g id="edge1" class="edge">
<title>Joukko&#45;oppi ja graafiteoria&#45;&gt;Joukko&#45;oppi ja graafiteoria</title>
<path fill="none" stroke="green" stroke-width="2" stroke-dasharray="5,2" d="M283.01,-373.05C300.13,-371.9 311.59,-369.55 311.59,-366 311.59,-363.2 304.45,-361.15 293.03,-359.84"/>
<polygon fill="green" stroke="green" stroke-width="2" points="293.28,-356.35 283.01,-358.95 292.66,-363.32 293.28,-356.35"/>
<text text-anchor="middle" x="316.59" y="-362.3" font-family="Times,serif" font-size="14.00">0</text>
</g>
<!-- Funktio&#45;ohjelmointi -->
<g id="node2" class="node">
<title>Funktio&#45;ohjelmointi</title>
<ellipse fill="none" stroke="black" cx="358" cy="-279" rx="101.28" ry="18"/>
<text text-anchor="middle" x="358" y="-275.3" font-family="Times,serif" font-size="14.00">Funktio&#45;ohjelmointi</text>
</g>
<!-- Joukko&#45;oppi ja graafiteoria&#45;&gt;Funktio&#45;ohjelmointi -->
<g id="edge2" class="edge">
<title>Joukko&#45;oppi ja graafiteoria&#45;&gt;Funktio&#45;ohjelmointi</title>
<path fill="none" stroke="green" stroke-width="2" stroke-dasharray="5,2" d="M198.98,-348.61C231.18,-334.72 277.45,-314.75 311.79,-299.94"/>
<polygon fill="green" stroke="green" stroke-width="2" points="313.34,-303.08 321.13,-295.91 310.57,-296.65 313.34,-303.08"/>
<text text-anchor="middle" x="282.5" y="-318.8" font-family="Times,serif" font-size="14.00">5/2</text>
</g>
<!-- Funktio&#45;ohjelmointi&#45;&gt;Funktio&#45;ohjelmointi -->
<g id="edge5" class="edge">
<title>Funktio&#45;ohjelmointi&#45;&gt;Funktio&#45;ohjelmointi</title>
<path fill="none" stroke="green" stroke-width="2" stroke-dasharray="5,2" d="M450.61,-286.35C466.43,-285.35 477.39,-282.9 477.39,-279 477.39,-276.02 470.97,-273.88 460.85,-272.59"/>
<polygon fill="green" stroke="green" stroke-width="2" points="460.89,-269.08 450.61,-271.65 460.25,-276.05 460.89,-269.08"/>
<text text-anchor="middle" x="482.39" y="-275.3" font-family="Times,serif" font-size="14.00">0</text>
</g>
<!-- Oliosuuntautunut suunnittelu ja ohjelmointi -->
<g id="node5" class="node">
<title>Oliosuuntautunut suunnittelu ja ohjelmointi</title>
<ellipse fill="none" stroke="black" cx="693" cy="-192" rx="214.46" ry="18"/>
<text text-anchor="middle" x="693" y="-188.3" font-family="Times,serif" font-size="14.00">Oliosuuntautunut suunnittelu ja ohjelmointi</text>
</g>
<!-- Funktio&#45;ohjelmointi&#45;&gt;Oliosuuntautunut suunnittelu ja ohjelmointi -->
<g id="edge6" class="edge">
<title>Funktio&#45;ohjelmointi&#45;&gt;Oliosuuntautunut suunnittelu ja ohjelmointi</title>
<path fill="none" stroke="brown" stroke-width="2" stroke-dasharray="5,2" d="M413.69,-263.87C470.03,-249.57 557.42,-227.4 619.43,-211.67"/>
<polygon fill="brown" stroke="brown" stroke-width="2" points="620.33,-215.05 629.16,-209.2 618.6,-208.27 620.33,-215.05"/>
<text text-anchor="middle" x="550" y="-231.8" font-family="Times,serif" font-size="14.00">4</text>
</g>
<!-- Ohjelmointi 1 -->
<g id="node6" class="node">
<title>Ohjelmointi 1</title>
<ellipse fill="none" stroke="black" cx="693" cy="-105" rx="73.39" ry="18"/>
<text text-anchor="middle" x="693" y="-101.3" font-family="Times,serif" font-size="14.00">Ohjelmointi 1</text>
</g>
<!-- Funktio&#45;ohjelmointi&#45;&gt;Ohjelmointi 1 -->
<g id="edge7" class="edge">
<title>Funktio&#45;ohjelmointi&#45;&gt;Ohjelmointi 1</title>
<path fill="none" stroke="green" stroke-width="2" stroke-dasharray="5,2" d="M454.87,-273.68C612.96,-265.64 912.09,-245.83 944,-210 954.64,-198.05 953.72,-186.71 944,-174 932.49,-158.96 828.29,-134.43 757.82,-119.31"/>
<polygon fill="green" stroke="green" stroke-width="2" points="758.19,-115.81 747.68,-117.15 756.73,-122.66 758.19,-115.81"/>
<text text-anchor="middle" x="962.5" y="-188.3" font-family="Times,serif" font-size="14.00">5/2</text>
</g>
<!-- Käyttöjärjestelmien ja pilvipalveluiden perusteet -->
<g id="node7" class="node">
<title>Käyttöjärjestelmien ja pilvipalveluiden perusteet</title>
<ellipse fill="none" stroke="black" cx="249" cy="-18" rx="237.76" ry="18"/>
<text text-anchor="middle" x="249" y="-14.3" font-family="Times,serif" font-size="14.00">Käyttöjärjestelmien ja pilvipalveluiden perusteet</text>
</g>
<!-- Funktio&#45;ohjelmointi&#45;&gt;Käyttöjärjestelmien ja pilvipalveluiden perusteet -->
<g id="edge8" class="edge">
<title>Funktio&#45;ohjelmointi&#45;&gt;Käyttöjärjestelmien ja pilvipalveluiden perusteet</title>
<path fill="none" stroke="brown" stroke-width="2" stroke-dasharray="5,2" d="M269.55,-270.1C190.52,-260.98 83.26,-242.85 57,-210 3.02,-142.46 125.65,-73.4 199.03,-39.85"/>
<polygon fill="brown" stroke="brown" stroke-width="2" points="200.47,-43.04 208.15,-35.75 197.6,-36.66 200.47,-43.04"/>
<text text-anchor="middle" x="71" y="-144.8" font-family="Times,serif" font-size="14.00">23/6</text>
</g>
<!-- Ohjelmointi 2 -->
<g id="node8" class="node">
<title>Ohjelmointi 2</title>
<ellipse fill="none" stroke="black" cx="968" cy="-18" rx="73.39" ry="18"/>
<text text-anchor="middle" x="968" y="-14.3" font-family="Times,serif" font-size="14.00">Ohjelmointi 2</text>
</g>
<!-- Funktio&#45;ohjelmointi&#45;&gt;Ohjelmointi 2 -->
<g id="edge9" class="edge">
<title>Funktio&#45;ohjelmointi&#45;&gt;Ohjelmointi 2</title>
<path fill="none" stroke="green" stroke-width="2" stroke-dasharray="5,2" d="M459.48,-277.62C678.26,-274.31 1182.44,-252.5 1279,-123 1339.97,-41.23 1163.29,-22.98 1051.72,-19.38"/>
<polygon fill="green" stroke="green" stroke-width="2" points="1051.57,-15.88 1041.47,-19.09 1051.37,-22.87 1051.57,-15.88"/>
<text text-anchor="middle" x="1277" y="-144.8" font-family="Times,serif" font-size="14.00">13/6</text>
</g>
<!-- Tietokoneen rakenne ja arkkitehtuuri -->
<g id="node9" class="node">
<title>Tietokoneen rakenne ja arkkitehtuuri</title>
<ellipse fill="none" stroke="black" cx="249" cy="-192" rx="183.07" ry="18"/>
<text text-anchor="middle" x="249" y="-188.3" font-family="Times,serif" font-size="14.00">Tietokoneen rakenne ja arkkitehtuuri</text>
</g>
<!-- Funktio&#45;ohjelmointi&#45;&gt;Tietokoneen rakenne ja arkkitehtuuri -->
<g id="edge27" class="edge">
<title>Funktio&#45;ohjelmointi&#45;&gt;Tietokoneen rakenne ja arkkitehtuuri</title>
<path fill="none" stroke="brown" stroke-width="2" stroke-dasharray="5,2" d="M338.57,-261.19C326.97,-251.3 311.85,-238.69 298,-228 292.84,-224.02 287.29,-219.9 281.84,-215.95"/>
<polygon fill="brown" stroke="brown" stroke-width="2" points="283.6,-212.9 273.44,-209.92 279.52,-218.59 283.6,-212.9"/>
<text text-anchor="middle" x="321" y="-231.8" font-family="Times,serif" font-size="14.00">4</text>
</g>
<!-- Tietoverkot -->
<g id="node3" class="node">
<title>Tietoverkot</title>
<ellipse fill="none" stroke="black" cx="161" cy="-453" rx="63.89" ry="18"/>
<text text-anchor="middle" x="161" y="-449.3" font-family="Times,serif" font-size="14.00">Tietoverkot</text>
</g>
<!-- Tietoverkot&#45;&gt;Joukko&#45;oppi ja graafiteoria -->
<g id="edge3" class="edge">
<title>Tietoverkot&#45;&gt;Joukko&#45;oppi ja graafiteoria</title>
<path fill="none" stroke="brown" stroke-width="2" stroke-dasharray="5,2" d="M161,-434.8C161,-423.16 161,-407.55 161,-394.24"/>
<polygon fill="brown" stroke="brown" stroke-width="2" points="164.5,-394.18 161,-384.18 157.5,-394.18 164.5,-394.18"/>
<text text-anchor="middle" x="166" y="-405.8" font-family="Times,serif" font-size="14.00">4</text>
</g>
<!-- Tietoverkot&#45;&gt;Funktio&#45;ohjelmointi -->
<g id="edge18" class="edge">
<title>Tietoverkot&#45;&gt;Funktio&#45;ohjelmointi</title>
<path fill="none" stroke="brown" stroke-width="2" stroke-dasharray="5,2" d="M219.91,-445.89C259.04,-438.36 307.4,-421.54 331,-384 345.76,-360.52 352.48,-329.24 355.53,-307.13"/>
<polygon fill="brown" stroke="brown" stroke-width="2" points="359.01,-307.44 356.74,-297.09 352.06,-306.6 359.01,-307.44"/>
<text text-anchor="middle" x="351" y="-362.3" font-family="Times,serif" font-size="14.00">4</text>
</g>
<!-- Tietoverkot&#45;&gt;Tietoverkot -->
<g id="edge19" class="edge">
<title>Tietoverkot&#45;&gt;Tietoverkot</title>
<path fill="none" stroke="green" stroke-width="2" stroke-dasharray="5,2" d="M218.64,-460.74C232.46,-460.13 242.69,-457.55 242.69,-453 242.69,-449.66 237.17,-447.38 228.77,-446.16"/>
<polygon fill="green" stroke="green" stroke-width="2" points="228.91,-442.66 218.64,-445.26 228.29,-449.63 228.91,-442.66"/>
<text text-anchor="middle" x="247.69" y="-449.3" font-family="Times,serif" font-size="14.00">0</text>
</g>
<!-- Tietoverkot&#45;&gt;Käyttöjärjestelmien ja pilvipalveluiden perusteet -->
<g id="edge20" class="edge">
<title>Tietoverkot&#45;&gt;Käyttöjärjestelmien ja pilvipalveluiden perusteet</title>
<path fill="none" stroke="yellow" stroke-width="2" stroke-dasharray="5,2" d="M103.33,-445.19C57.13,-436.14 0,-415.2 0,-367 0,-367 0,-367 0,-104 0,-72.5 72.27,-50.27 138.94,-36.46"/>
<polygon fill="yellow" stroke="yellow" stroke-width="2" points="140.05,-39.81 149.16,-34.4 138.66,-32.95 140.05,-39.81"/>
<text text-anchor="middle" x="5" y="-231.8" font-family="Times,serif" font-size="14.00">3</text>
</g>
<!-- Algoritmit 1 -->
<g id="node4" class="node">
<title>Algoritmit 1</title>
<ellipse fill="none" stroke="black" cx="371" cy="-453" rx="66.89" ry="18"/>
<text text-anchor="middle" x="371" y="-449.3" font-family="Times,serif" font-size="14.00">Algoritmit 1</text>
</g>
<!-- Algoritmit 1&#45;&gt;Joukko&#45;oppi ja graafiteoria -->
<g id="edge4" class="edge">
<title>Algoritmit 1&#45;&gt;Joukko&#45;oppi ja graafiteoria</title>
<path fill="none" stroke="yellow" stroke-width="2" stroke-dasharray="5,2" d="M335.38,-437.58C301.07,-423.7 248.88,-402.57 210.54,-387.05"/>
<polygon fill="yellow" stroke="yellow" stroke-width="2" points="211.69,-383.74 201.11,-383.23 209.06,-390.23 211.69,-383.74"/>
<text text-anchor="middle" x="283" y="-405.8" font-family="Times,serif" font-size="14.00">3</text>
</g>
<!-- Algoritmit 1&#45;&gt;Funktio&#45;ohjelmointi -->
<g id="edge23" class="edge">
<title>Algoritmit 1&#45;&gt;Funktio&#45;ohjelmointi</title>
<path fill="none" stroke="yellow" stroke-width="2" stroke-dasharray="5,2" d="M373.25,-434.93C376.23,-408.82 380.19,-357.51 372,-315 371.47,-312.26 370.73,-309.47 369.87,-306.71"/>
<polygon fill="yellow" stroke="yellow" stroke-width="2" points="373.05,-305.24 366.33,-297.05 366.48,-307.65 373.05,-305.24"/>
<text text-anchor="middle" x="381" y="-362.3" font-family="Times,serif" font-size="14.00">3</text>
</g>
<!-- Algoritmit 1&#45;&gt;Algoritmit 1 -->
<g id="edge24" class="edge">
<title>Algoritmit 1&#45;&gt;Algoritmit 1</title>
<path fill="none" stroke="green" stroke-width="2" stroke-dasharray="5,2" d="M431.7,-460.7C445.68,-460.04 455.94,-457.47 455.94,-453 455.94,-449.72 450.41,-447.46 441.93,-446.23"/>
<polygon fill="green" stroke="green" stroke-width="2" points="441.98,-442.72 431.7,-445.3 441.34,-449.69 441.98,-442.72"/>
<text text-anchor="middle" x="460.94" y="-449.3" font-family="Times,serif" font-size="14.00">0</text>
</g>
<!-- Oliosuuntautunut suunnittelu ja ohjelmointi&#45;&gt;Oliosuuntautunut suunnittelu ja ohjelmointi -->
<g id="edge11" class="edge">
<title>Oliosuuntautunut suunnittelu ja ohjelmointi&#45;&gt;Oliosuuntautunut suunnittelu ja ohjelmointi</title>
<path fill="none" stroke="green" stroke-width="2" stroke-dasharray="5,2" d="M893.87,-198.37C913.22,-197.08 925.48,-194.95 925.48,-192 925.48,-189.6 917.39,-187.75 903.98,-186.45"/>
<polygon fill="green" stroke="green" stroke-width="2" points="904.12,-182.95 893.87,-185.63 903.56,-189.92 904.12,-182.95"/>
<text text-anchor="middle" x="930.48" y="-188.3" font-family="Times,serif" font-size="14.00">0</text>
</g>
<!-- Oliosuuntautunut suunnittelu ja ohjelmointi&#45;&gt;Ohjelmointi 1 -->
<g id="edge12" class="edge">
<title>Oliosuuntautunut suunnittelu ja ohjelmointi&#45;&gt;Ohjelmointi 1</title>
<path fill="none" stroke="yellow" stroke-width="2" stroke-dasharray="5,2" d="M693,-173.8C693,-162.16 693,-146.55 693,-133.24"/>
<polygon fill="yellow" stroke="yellow" stroke-width="2" points="696.5,-133.18 693,-123.18 689.5,-133.18 696.5,-133.18"/>
<text text-anchor="middle" x="698" y="-144.8" font-family="Times,serif" font-size="14.00">3</text>
</g>
<!-- Oliosuuntautunut suunnittelu ja ohjelmointi&#45;&gt;Käyttöjärjestelmien ja pilvipalveluiden perusteet -->
<g id="edge13" class="edge">
<title>Oliosuuntautunut suunnittelu ja ohjelmointi&#45;&gt;Käyttöjärjestelmien ja pilvipalveluiden perusteet</title>
<path fill="none" stroke="brown" stroke-width="2" stroke-dasharray="5,2" d="M550.16,-178.54C521.08,-173.41 491.11,-166.19 464,-156 390.7,-128.45 316.03,-73.55 276.89,-42.26"/>
<polygon fill="brown" stroke="brown" stroke-width="2" points="279.07,-39.52 269.09,-35.96 274.67,-44.96 279.07,-39.52"/>
<text text-anchor="middle" x="399" y="-101.3" font-family="Times,serif" font-size="14.00">4</text>
</g>
<!-- Oliosuuntautunut suunnittelu ja ohjelmointi&#45;&gt;Ohjelmointi 2 -->
<g id="edge14" class="edge">
<title>Oliosuuntautunut suunnittelu ja ohjelmointi&#45;&gt;Ohjelmointi 2</title>
<path fill="none" stroke="green" stroke-width="2" stroke-dasharray="5,2" d="M720.62,-174.02C742.89,-160.3 775,-140.48 803,-123 848.62,-94.52 901.13,-61.36 934.44,-40.28"/>
<polygon fill="green" stroke="green" stroke-width="2" points="936.31,-43.23 942.88,-34.93 932.56,-37.32 936.31,-43.23"/>
<text text-anchor="middle" x="869.5" y="-101.3" font-family="Times,serif" font-size="14.00">7/3</text>
</g>
<!-- Ohjelmointi 1&#45;&gt;Ohjelmointi 1 -->
<g id="edge15" class="edge">
<title>Ohjelmointi 1&#45;&gt;Ohjelmointi 1</title>
<path fill="none" stroke="green" stroke-width="2" stroke-dasharray="5,2" d="M759.58,-112.64C773.99,-111.9 784.44,-109.35 784.44,-105 784.44,-101.74 778.56,-99.49 769.54,-98.26"/>
<polygon fill="green" stroke="green" stroke-width="2" points="769.85,-94.77 759.58,-97.36 769.22,-101.74 769.85,-94.77"/>
<text text-anchor="middle" x="789.44" y="-101.3" font-family="Times,serif" font-size="14.00">0</text>
</g>
<!-- Ohjelmointi 1&#45;&gt;Käyttöjärjestelmien ja pilvipalveluiden perusteet -->
<g id="edge16" class="edge">
<title>Ohjelmointi 1&#45;&gt;Käyttöjärjestelmien ja pilvipalveluiden perusteet</title>
<path fill="none" stroke="brown" stroke-width="2" stroke-dasharray="5,2" d="M641.77,-91.99C595.47,-81.33 525.36,-65.68 464,-54 430.42,-47.6 393.74,-41.36 360.35,-35.96"/>
<polygon fill="brown" stroke="brown" stroke-width="2" points="360.52,-32.44 350.1,-34.31 359.41,-39.36 360.52,-32.44"/>
<text text-anchor="middle" x="553.5" y="-57.8" font-family="Times,serif" font-size="14.00">47/10</text>
</g>
<!-- Ohjelmointi 1&#45;&gt;Ohjelmointi 2 -->
<g id="edge17" class="edge">
<title>Ohjelmointi 1&#45;&gt;Ohjelmointi 2</title>
<path fill="none" stroke="brown" stroke-width="2" stroke-dasharray="5,2" d="M736.88,-90.44C785.17,-75.51 862.81,-51.51 914.6,-35.51"/>
<polygon fill="brown" stroke="brown" stroke-width="2" points="915.76,-38.81 924.28,-32.51 913.69,-32.12 915.76,-38.81"/>
<text text-anchor="middle" x="862" y="-57.8" font-family="Times,serif" font-size="14.00">18/5</text>
</g>
<!-- Käyttöjärjestelmien ja pilvipalveluiden perusteet&#45;&gt;Käyttöjärjestelmien ja pilvipalveluiden perusteet -->
<g id="edge25" class="edge">
<title>Käyttöjärjestelmien ja pilvipalveluiden perusteet&#45;&gt;Käyttöjärjestelmien ja pilvipalveluiden perusteet</title>
<path fill="none" stroke="green" stroke-width="2" stroke-dasharray="5,2" d="M472.28,-24.23C492.31,-22.93 504.88,-20.85 504.88,-18 504.88,-15.66 496.42,-13.84 482.32,-12.55"/>
<polygon fill="green" stroke="green" stroke-width="2" points="482.52,-9.05 472.28,-11.77 481.98,-16.03 482.52,-9.05"/>
<text text-anchor="middle" x="509.88" y="-14.3" font-family="Times,serif" font-size="14.00">0</text>
</g>
<!-- Ohjelmointi 2&#45;&gt;Ohjelmointi 2 -->
<g id="edge26" class="edge">
<title>Ohjelmointi 2&#45;&gt;Ohjelmointi 2</title>
<path fill="none" stroke="green" stroke-width="2" stroke-dasharray="5,2" d="M1034.58,-25.64C1048.99,-24.9 1059.44,-22.35 1059.44,-18 1059.44,-14.74 1053.56,-12.49 1044.54,-11.26"/>
<polygon fill="green" stroke="green" stroke-width="2" points="1044.85,-7.77 1034.58,-10.36 1044.22,-14.74 1044.85,-7.77"/>
<text text-anchor="middle" x="1064.44" y="-14.3" font-family="Times,serif" font-size="14.00">0</text>
</g>
<!-- Tietokoneen rakenne ja arkkitehtuuri&#45;&gt;Funktio&#45;ohjelmointi -->
<g id="edge10" class="edge">
<title>Tietokoneen rakenne ja arkkitehtuuri&#45;&gt;Funktio&#45;ohjelmointi</title>
<path fill="none" stroke="brown" stroke-width="2" stroke-dasharray="5,2" d="M259.67,-210.35C266.74,-220.79 276.76,-233.79 288,-243 294.65,-248.44 302.29,-253.33 310.02,-257.61"/>
<polygon fill="brown" stroke="brown" stroke-width="2" points="308.6,-260.82 319.08,-262.35 311.84,-254.62 308.6,-260.82"/>
<text text-anchor="middle" x="293" y="-231.8" font-family="Times,serif" font-size="14.00">4</text>
</g>
<!-- Tietokoneen rakenne ja arkkitehtuuri&#45;&gt;Ohjelmointi 1 -->
<g id="edge28" class="edge">
<title>Tietokoneen rakenne ja arkkitehtuuri&#45;&gt;Ohjelmointi 1</title>
<path fill="none" stroke="brown" stroke-width="2" stroke-dasharray="5,2" d="M328.63,-175.75C413.83,-159.44 547.41,-133.87 626.97,-118.64"/>
<polygon fill="brown" stroke="brown" stroke-width="2" points="627.71,-122.06 636.88,-116.74 626.4,-115.19 627.71,-122.06"/>
<text text-anchor="middle" x="508.5" y="-144.8" font-family="Times,serif" font-size="14.00">9/2</text>
</g>
<!-- Tietokoneen rakenne ja arkkitehtuuri&#45;&gt;Käyttöjärjestelmien ja pilvipalveluiden perusteet -->
<g id="edge29" class="edge">
<title>Tietokoneen rakenne ja arkkitehtuuri&#45;&gt;Käyttöjärjestelmien ja pilvipalveluiden perusteet</title>
<path fill="none" stroke="brown" stroke-width="2" stroke-dasharray="5,2" d="M249,-173.88C249,-144 249,-82.11 249,-46.27"/>
<polygon fill="brown" stroke="brown" stroke-width="2" points="252.5,-46.05 249,-36.05 245.5,-46.05 252.5,-46.05"/>
<text text-anchor="middle" x="260.5" y="-101.3" font-family="Times,serif" font-size="14.00">7/2</text>
</g>
<!-- Tietokoneen rakenne ja arkkitehtuuri&#45;&gt;Tietokoneen rakenne ja arkkitehtuuri -->
<g id="edge30" class="edge">
<title>Tietokoneen rakenne ja arkkitehtuuri&#45;&gt;Tietokoneen rakenne ja arkkitehtuuri</title>
<path fill="none" stroke="green" stroke-width="2" stroke-dasharray="5,2" d="M419.71,-198.6C438.3,-197.34 450.28,-195.14 450.28,-192 450.28,-189.48 442.52,-187.56 429.8,-186.25"/>
<polygon fill="green" stroke="green" stroke-width="2" points="429.96,-182.75 419.71,-185.4 429.38,-189.72 429.96,-182.75"/>
<text text-anchor="middle" x="455.28" y="-188.3" font-family="Times,serif" font-size="14.00">0</text>
</g>
<!-- Tietokannat ja tiedonhallinta -->
<g id="node10" class="node">
<title>Tietokannat ja tiedonhallinta</title>
<ellipse fill="none" stroke="black" cx="1098" cy="-105" rx="144.07" ry="18"/>
<text text-anchor="middle" x="1098" y="-101.3" font-family="Times,serif" font-size="14.00">Tietokannat ja tiedonhallinta</text>
</g>
<!-- Tietokannat ja tiedonhallinta&#45;&gt;Ohjelmointi 2 -->
<g id="edge22" class="edge">
<title>Tietokannat ja tiedonhallinta&#45;&gt;Ohjelmointi 2</title>
<path fill="none" stroke="brown" stroke-width="2" stroke-dasharray="5,2" d="M1072.32,-87.21C1051.93,-73.88 1023.29,-55.15 1001.18,-40.69"/>
<polygon fill="brown" stroke="brown" stroke-width="2" points="1003.03,-37.72 992.75,-35.18 999.2,-43.58 1003.03,-37.72"/>
<text text-anchor="middle" x="1056" y="-57.8" font-family="Times,serif" font-size="14.00">10/3</text>
</g>
<!-- Tietokannat ja tiedonhallinta&#45;&gt;Tietokannat ja tiedonhallinta -->
<g id="edge21" class="edge">
<title>Tietokannat ja tiedonhallinta&#45;&gt;Tietokannat ja tiedonhallinta</title>
<path fill="none" stroke="green" stroke-width="2" stroke-dasharray="5,2" d="M1231.39,-111.92C1248.78,-110.73 1260.29,-108.42 1260.29,-105 1260.29,-102.3 1253.12,-100.29 1241.55,-98.98"/>
<polygon fill="green" stroke="green" stroke-width="2" points="1241.66,-95.47 1231.39,-98.08 1241.04,-102.45 1241.66,-95.47"/>
<text text-anchor="middle" x="1265.29" y="-101.3" font-family="Times,serif" font-size="14.00">0</text>
</g>
</g>
</svg>
